<?xml version="1.0" encoding="UTF-8" standalone="no"?>
<svg width="800px" height="500px" viewBox="0 0 800 500" version="1.1" xmlns="http://www.w3.org/2000/svg" xmlns:xlink="http://www.w3.org/1999/xlink" xmlns:sketch="http://www.bohemiancoding.com/sketch/ns">
    <!-- Generator: Sketch 3.0.3 (7891) - http://www.bohemiancoding.com/sketch -->
    <title>Dribbble</title>
    <desc>Created with Sketch.</desc>
    <defs>
        <linearGradient x1="50%" y1="23.3430139%" x2="50%" y2="100%" id="linearGradient-1">
            <stop stop-color="#1472E1" offset="0%"></stop>
            <stop stop-color="#1F41C0" offset="100%"></stop>
        </linearGradient>
        <linearGradient x1="50%" y1="0%" x2="50%" y2="99.3602519%" id="linearGradient-2">
            <stop stop-color="#1166C7" offset="0%"></stop>
            <stop stop-color="#1A38A6" offset="100%"></stop>
        </linearGradient>
        <filter x="-50%" y="-50%" width="200%" height="200%" filterUnits="objectBoundingBox" id="filter-3">
            <feOffset dx="0" dy="5" in="SourceAlpha" result="shadowOffsetOuter1"></feOffset>
            <feGaussianBlur stdDeviation="2.5" in="shadowOffsetOuter1" result="shadowBlurOuter1"></feGaussianBlur>
            <feColorMatrix values="0 0 0 0 0   0 0 0 0 0   0 0 0 0 0  0 0 0 0.07 0" in="shadowBlurOuter1" type="matrix" result="shadowMatrixOuter1"></feColorMatrix>
            <feMerge>
                <feMergeNode in="shadowMatrixOuter1"></feMergeNode>
                <feMergeNode in="SourceGraphic"></feMergeNode>
            </feMerge>
        </filter>
        <linearGradient x1="50%" y1="18.6504714%" x2="50%" y2="100%" id="linearGradient-4">
            <stop stop-color="#0B9FF3" offset="0%"></stop>
            <stop stop-color="#178AE7" offset="100%"></stop>
        </linearGradient>
        <linearGradient x1="50%" y1="0%" x2="50%" y2="97.7319834%" id="linearGradient-5">
            <stop stop-color="#24A7F3" offset="0%"></stop>
            <stop stop-color="#2E95E8" offset="100%"></stop>
        </linearGradient>
        <filter x="-50%" y="-50%" width="200%" height="200%" filterUnits="objectBoundingBox" id="filter-6">
            <feOffset dx="0" dy="5" in="SourceAlpha" result="shadowOffsetOuter1"></feOffset>
            <feGaussianBlur stdDeviation="2.5" in="shadowOffsetOuter1" result="shadowBlurOuter1"></feGaussianBlur>
            <feColorMatrix values="0 0 0 0 0   0 0 0 0 0   0 0 0 0 0  0 0 0 0.07 0" in="shadowBlurOuter1" type="matrix" result="shadowMatrixOuter1"></feColorMatrix>
            <feMerge>
                <feMergeNode in="shadowMatrixOuter1"></feMergeNode>
                <feMergeNode in="SourceGraphic"></feMergeNode>
            </feMerge>
        </filter>
        <linearGradient x1="50%" y1="0%" x2="50%" y2="100%" id="linearGradient-7">
            <stop stop-color="#42DDFE" offset="0%"></stop>
            <stop stop-color="#43BDFF" offset="100%"></stop>
        </linearGradient>
        <linearGradient x1="50%" y1="0%" x2="50%" y2="100%" id="linearGradient-8">
            <stop stop-color="#5CE1FF" offset="0%"></stop>
            <stop stop-color="#5CC6FF" offset="100%"></stop>
        </linearGradient>
        <filter x="-50%" y="-50%" width="200%" height="200%" filterUnits="objectBoundingBox" id="filter-9">
            <feOffset dx="0" dy="5" in="SourceAlpha" result="shadowOffsetOuter1"></feOffset>
            <feGaussianBlur stdDeviation="2.5" in="shadowOffsetOuter1" result="shadowBlurOuter1"></feGaussianBlur>
            <feColorMatrix values="0 0 0 0 0   0 0 0 0 0   0 0 0 0 0  0 0 0 0.105 0" in="shadowBlurOuter1" type="matrix" result="shadowMatrixOuter1"></feColorMatrix>
            <feMerge>
                <feMergeNode in="shadowMatrixOuter1"></feMergeNode>
                <feMergeNode in="SourceGraphic"></feMergeNode>
            </feMerge>
        </filter>
    </defs>
    <g id="Page-1" stroke="none" stroke-width="1" fill="none" fill-rule="evenodd" sketch:type="MSPage">
        <g id="Dribbble" sketch:type="MSArtboardGroup">
            <g id="CloudKit-Icon" sketch:type="MSLayerGroup" transform="translate(210.000000, 39.000000)">
                <path d="M358.425522,314.612533 C386.918372,292.429159 386.914634,256.459893 358.425522,234.27943 L241.487748,143.236439 C212.994898,121.053065 166.795121,121.055976 138.306009,143.236439 L21.3682358,234.27943 C-7.12461463,256.462804 -7.12087586,292.43207 21.3682358,314.612533 L138.306009,405.655524 C166.79886,427.838898 212.998637,427.835987 241.487748,405.655524 L358.425522,314.612533 Z" id="Bottom" stroke="url(#linearGradient-2)" stroke-width="2" fill="url(#linearGradient-1)" filter="url(#filter-3)" sketch:type="MSShapeGroup"></path>
                <path d="M358.425522,251.312533 C386.918372,229.129159 386.914634,193.159893 358.425522,170.97943 L241.487748,79.9364388 C212.994898,57.753065 166.795121,57.7559759 138.306009,79.9364388 L21.3682358,170.97943 C-7.12461463,193.162804 -7.12087586,229.13207 21.3682358,251.312533 L138.306009,342.355524 C166.79886,364.538898 212.998637,364.535987 241.487748,342.355524 L358.425522,251.312533 Z" id="Middle" stroke="url(#linearGradient-5)" stroke-width="2" fill="url(#linearGradient-4)" filter="url(#filter-6)" sketch:type="MSShapeGroup"></path>
                <path d="M358.425522,188.012533 C386.918372,165.829159 386.914634,129.859893 358.425522,107.67943 L241.487748,16.6364388 C212.994898,-5.54693499 166.795121,-5.54402414 138.306009,16.6364388 L21.3682358,107.67943 C-7.12461463,129.862804 -7.12087586,165.83207 21.3682358,188.012533 L138.306009,279.055524 C166.79886,301.238898 212.998637,301.235987 241.487748,279.055524 L358.425522,188.012533 Z" id="Top" stroke="url(#linearGradient-8)" stroke-width="2" fill="url(#linearGradient-7)" filter="url(#filter-9)" sketch:type="MSShapeGroup"></path>
                <path d="M135.834671,143.645608 C128.753247,143.43413 121.517618,145.436582 115.992142,149.649854 C105.498544,157.651405 105.146659,170.596681 115.206185,178.563939 C115.582574,178.862044 115.968207,179.148956 116.362413,179.424676 C107.429277,191.576657 109.326581,207.135869 122.290775,217.403658 C138.008784,229.852499 164.04253,229.809063 180.438776,217.30664 L248.520618,165.393053 L267.340916,151.042249 L284.94064,137.622153 C300.025187,126.119924 300.531022,107.51109 286.070454,96.0581562 C271.609885,84.6052224 247.65884,84.6451841 232.574293,96.1474132 C232.082069,96.5227426 231.604916,96.9059836 231.142877,97.2966182 C229.822982,95.9627568 228.386489,94.6766608 226.833176,93.4464196 C205.456684,76.5159956 170.05079,76.5750695 147.751894,93.5783647 C129.955264,107.148604 125.885743,127.410322 135.834671,143.645608 Z" id="Cloud" stroke="#FFFFFF" stroke-width="8" sketch:type="MSShapeGroup"></path>
            </g>
        </g>
    </g>
</svg>